<svg xmlns="http://www.w3.org/2000/svg" xmlns:xlink="http://www.w3.org/1999/xlink" width="500" zoomAndPan="magnify" viewBox="0 0 375 374.999991" height="500" preserveAspectRatio="xMidYMid meet" version="1.0"><defs><clipPath id="44c4dc4e28"><path d="M 66.210938 66.210938 L 308.460938 66.210938 L 308.460938 308.460938 L 66.210938 308.460938 Z M 66.210938 66.210938 " clip-rule="nonzero"/></clipPath><clipPath id="68259b6738"><path d="M 168.28125 108.328125 L 215.535156 108.328125 L 215.535156 155.582031 L 168.28125 155.582031 Z M 168.28125 108.328125 " clip-rule="nonzero"/></clipPath><clipPath id="d054162f26"><path d="M 191.910156 108.328125 C 178.859375 108.328125 168.28125 118.90625 168.28125 131.957031 C 168.28125 145.003906 178.859375 155.582031 191.910156 155.582031 C 204.957031 155.582031 215.535156 145.003906 215.535156 131.957031 C 215.535156 118.90625 204.957031 108.328125 191.910156 108.328125 Z M 191.910156 108.328125 " clip-rule="nonzero"/></clipPath></defs><g clip-path="url(#44c4dc4e28)"><path fill="#ffc093" d="M 273.265625 101.726562 C 251.320312 79.78125 220.996094 66.203125 187.503906 66.203125 C 154.007812 66.203125 123.6875 79.78125 101.742188 101.726562 C 79.796875 123.671875 66.21875 153.996094 66.21875 187.488281 C 66.21875 220.980469 79.796875 251.304688 101.742188 273.25 C 123.6875 295.195312 154.011719 308.773438 187.503906 308.773438 C 220.996094 308.773438 251.320312 295.195312 273.265625 273.25 C 295.210938 251.304688 308.789062 220.984375 308.789062 187.488281 C 308.789062 153.996094 295.210938 123.671875 273.265625 101.726562 " fill-opacity="1" fill-rule="nonzero"/></g><path fill="#ec407a" d="M 269.183594 105.808594 C 248.28125 84.90625 219.402344 71.980469 187.503906 71.980469 C 155.601562 71.980469 126.726562 84.90625 105.824219 105.808594 C 84.925781 126.710938 71.992188 155.589844 71.992188 187.488281 C 71.992188 219.386719 84.925781 248.265625 105.824219 269.167969 C 126.726562 290.066406 155.605469 303 187.503906 303 C 219.402344 303 248.28125 290.066406 269.183594 269.167969 C 290.085938 248.265625 303.011719 219.390625 303.011719 187.488281 C 303.011719 155.589844 290.085938 126.710938 269.183594 105.808594 " fill-opacity="1" fill-rule="nonzero"/><path fill="#ffc093" d="M 125.160156 232.265625 C 119.621094 226.957031 116.132812 219.574219 115.910156 211.371094 L 95.417969 211.371094 C 87.839844 211.371094 80.886719 214.089844 75.484375 218.597656 C 79.90625 235.453125 88.027344 250.816406 98.933594 263.75 C 100.527344 248.765625 111.109375 236.4375 125.160156 232.265625 " fill-opacity="1" fill-rule="nonzero"/><path fill="#ffc093" d="M 105.738281 209.71875 C 109.421875 209.71875 112.898438 208.871094 116.019531 207.414062 C 117.003906 197.964844 122.382812 189.820312 130.050781 185.015625 C 129.851562 171.75 119.054688 161.046875 105.738281 161.046875 C 92.296875 161.046875 81.414062 171.945312 81.414062 185.382812 C 81.414062 198.824219 92.296875 209.71875 105.738281 209.71875 " fill-opacity="1" fill-rule="nonzero"/><path fill="#ffffff" d="M 199.226562 260.203125 L 178.578125 260.203125 C 161.402344 260.203125 147.417969 274.183594 147.417969 291.351562 L 147.417969 297.820312 C 159.910156 302.433594 173.414062 304.949219 187.507812 304.949219 C 202.648438 304.949219 217.109375 302.042969 230.367188 296.761719 L 230.367188 291.351562 C 230.378906 274.171875 216.402344 260.203125 199.226562 260.203125 " fill-opacity="1" fill-rule="nonzero"/><path fill="#ffb30a" d="M 168.058594 255.960938 C 162.554688 250.679688 159.070312 243.347656 158.808594 235.203125 C 158.058594 235.140625 157.296875 235.078125 156.523438 235.078125 L 135.886719 235.078125 C 118.707031 235.078125 104.730469 249.058594 104.730469 266.234375 L 104.730469 270.128906 L 105.625 271.035156 C 115.894531 281.304688 128.09375 289.65625 141.625 295.503906 L 141.625 291.394531 C 141.625 274.675781 152.789062 260.507812 168.058594 255.960938 " fill-opacity="1" fill-rule="nonzero"/><path fill="#ffc093" d="M 279.59375 210.597656 L 259.105469 210.597656 C 258.882812 218.800781 255.382812 226.1875 249.855469 231.476562 C 264.125 235.726562 274.816406 248.382812 276.148438 263.671875 C 287.152344 250.59375 295.320312 235.042969 299.695312 217.964844 C 294.265625 213.371094 287.246094 210.597656 279.59375 210.597656 " fill-opacity="1" fill-rule="nonzero"/><path fill="#ffb30a" d="M 239.484375 235.078125 L 218.996094 235.078125 C 218.773438 243.269531 215.269531 250.65625 209.742188 255.960938 C 225 260.507812 236.179688 274.660156 236.179688 291.394531 L 236.179688 294.257812 C 248.601562 288.496094 259.832031 280.597656 269.390625 271.035156 C 269.808594 270.621094 270.21875 270.203125 270.625 269.78125 L 270.625 266.234375 C 270.625 249.058594 256.660156 235.078125 239.484375 235.078125 " fill-opacity="1" fill-rule="nonzero"/><path fill="#ffffff" d="M 213.242188 234.203125 C 213.242188 247.644531 202.347656 258.542969 188.90625 258.542969 C 175.464844 258.542969 164.570312 247.644531 164.570312 234.203125 C 164.570312 220.769531 175.464844 209.882812 188.90625 209.882812 C 202.347656 209.882812 213.242188 220.769531 213.242188 234.203125 " fill-opacity="1" fill-rule="nonzero"/><path fill="#ffc093" d="M 244.964844 184.242188 C 252.632812 189.046875 258.007812 197.191406 258.992188 206.640625 C 262.113281 208.097656 265.59375 208.933594 269.277344 208.933594 C 282.714844 208.933594 293.601562 198.050781 293.601562 184.609375 C 293.601562 171.171875 282.714844 160.289062 269.277344 160.289062 C 255.957031 160.273438 245.160156 170.972656 244.964844 184.242188 " fill-opacity="1" fill-rule="nonzero"/><path fill="#ffb30a" d="M 146.214844 184.757812 C 132.765625 184.757812 121.878906 195.65625 121.878906 209.09375 C 121.878906 222.527344 132.765625 233.417969 146.214844 233.417969 C 150.96875 233.417969 155.398438 232.03125 159.152344 229.660156 C 160.34375 221.886719 164.507812 215.085938 170.46875 210.460938 C 170.492188 210.003906 170.542969 209.550781 170.542969 209.09375 C 170.542969 195.65625 159.640625 184.757812 146.214844 184.757812 " fill-opacity="1" fill-rule="nonzero"/><path fill="#ffb30a" d="M 229.152344 233.417969 C 242.59375 233.417969 253.488281 222.535156 253.488281 209.09375 C 253.488281 195.65625 242.59375 184.757812 229.152344 184.757812 C 215.847656 184.757812 205.046875 195.457031 204.839844 208.726562 C 212.523438 213.53125 217.902344 221.675781 218.882812 231.125 C 222.003906 232.585938 225.480469 233.417969 229.152344 233.417969 " fill-opacity="1" fill-rule="nonzero"/><g clip-path="url(#68259b6738)"><g clip-path="url(#d054162f26)"><path fill="#ec407a" d="M 168.28125 108.328125 L 215.535156 108.328125 L 215.535156 155.582031 L 168.28125 155.582031 Z M 168.28125 108.328125 " fill-opacity="1" fill-rule="nonzero"/></g></g></svg>