<svg xmlns="http://www.w3.org/2000/svg" xmlns:xlink="http://www.w3.org/1999/xlink" width="500" zoomAndPan="magnify" viewBox="0 0 375 374.999991" height="500" preserveAspectRatio="xMidYMid meet" version="1.0"><defs><clipPath id="f2e8989196"><path d="M 66.210938 58.476562 L 308.460938 58.476562 L 308.460938 300.726562 L 66.210938 300.726562 Z M 66.210938 58.476562 " clip-rule="nonzero"/></clipPath><clipPath id="583c9727c6"><path d="M 145.285156 98.140625 L 216.800781 98.140625 L 216.800781 169.65625 L 145.285156 169.65625 Z M 145.285156 98.140625 " clip-rule="nonzero"/></clipPath><clipPath id="bb7137d5ad"><path d="M 181.042969 98.140625 C 161.296875 98.140625 145.285156 114.148438 145.285156 133.898438 C 145.285156 153.648438 161.296875 169.65625 181.042969 169.65625 C 200.792969 169.65625 216.800781 153.648438 216.800781 133.898438 C 216.800781 114.148438 200.792969 98.140625 181.042969 98.140625 Z M 181.042969 98.140625 " clip-rule="nonzero"/></clipPath></defs><g clip-path="url(#f2e8989196)"><path fill="#ffa25f" d="M 273.265625 93.988281 C 251.320312 72.042969 220.996094 58.46875 187.503906 58.46875 C 154.007812 58.46875 123.6875 72.042969 101.742188 93.988281 C 79.796875 115.9375 66.21875 146.257812 66.21875 179.75 C 66.21875 213.242188 79.796875 243.570312 101.742188 265.511719 C 123.6875 287.457031 154.011719 301.035156 187.503906 301.035156 C 220.996094 301.035156 251.320312 287.457031 273.265625 265.511719 C 295.210938 243.570312 308.789062 213.246094 308.789062 179.75 C 308.789062 146.257812 295.210938 115.9375 273.265625 93.988281 " fill-opacity="1" fill-rule="nonzero"/></g><path fill="#ffffff" d="M 269.183594 98.070312 C 248.28125 77.171875 219.402344 64.242188 187.503906 64.242188 C 155.601562 64.242188 126.726562 77.171875 105.824219 98.070312 C 84.925781 118.972656 71.992188 147.851562 71.992188 179.75 C 71.992188 211.648438 84.925781 240.527344 105.824219 261.429688 C 126.726562 282.332031 155.605469 295.261719 187.503906 295.261719 C 219.402344 295.261719 248.28125 282.332031 269.183594 261.429688 C 290.085938 240.527344 303.011719 211.652344 303.011719 179.75 C 303.011719 147.851562 290.085938 118.972656 269.183594 98.070312 " fill-opacity="1" fill-rule="nonzero"/><path fill="#ffa25f" d="M 125.160156 224.527344 C 119.621094 219.222656 116.132812 211.835938 115.910156 203.632812 L 95.417969 203.632812 C 87.839844 203.632812 80.886719 206.351562 75.484375 210.859375 C 79.90625 227.71875 88.027344 243.078125 98.933594 256.011719 C 100.527344 241.03125 111.109375 228.699219 125.160156 224.527344 " fill-opacity="1" fill-rule="nonzero"/><path fill="#ffa25f" d="M 105.738281 201.984375 C 109.421875 201.984375 112.898438 201.136719 116.019531 199.675781 C 117.003906 190.230469 122.382812 182.082031 130.050781 177.277344 C 129.851562 164.011719 119.054688 153.3125 105.738281 153.3125 C 92.296875 153.3125 81.414062 164.207031 81.414062 177.648438 C 81.414062 191.085938 92.296875 201.984375 105.738281 201.984375 " fill-opacity="1" fill-rule="nonzero"/><path fill="#ffffff" d="M 199.226562 252.464844 L 178.578125 252.464844 C 161.402344 252.464844 147.417969 266.445312 147.417969 283.617188 L 147.417969 290.082031 C 159.910156 294.695312 173.414062 297.214844 187.507812 297.214844 C 202.648438 297.214844 217.109375 294.308594 230.367188 289.023438 L 230.367188 283.617188 C 230.378906 266.433594 216.402344 252.464844 199.226562 252.464844 " fill-opacity="1" fill-rule="nonzero"/><path fill="#ec407a" d="M 168.058594 248.222656 C 162.554688 242.941406 159.070312 235.609375 158.808594 227.464844 C 158.058594 227.402344 157.296875 227.339844 156.523438 227.339844 L 135.886719 227.339844 C 118.707031 227.339844 104.730469 241.320312 104.730469 258.496094 L 104.730469 262.394531 L 105.625 263.296875 C 115.894531 273.570312 128.09375 281.921875 141.625 287.765625 L 141.625 283.65625 C 141.625 266.9375 152.789062 252.769531 168.058594 248.222656 " fill-opacity="1" fill-rule="nonzero"/><path fill="#ffa25f" d="M 279.59375 202.859375 L 259.105469 202.859375 C 258.882812 211.0625 255.382812 218.449219 249.855469 223.742188 C 264.125 227.992188 274.816406 240.644531 276.148438 255.933594 C 287.152344 242.855469 295.320312 227.304688 299.695312 210.230469 C 294.265625 205.636719 287.246094 202.859375 279.59375 202.859375 " fill-opacity="1" fill-rule="nonzero"/><path fill="#ec407a" d="M 239.484375 227.339844 L 218.996094 227.339844 C 218.773438 235.53125 215.269531 242.917969 209.742188 248.222656 C 225 252.769531 236.179688 266.921875 236.179688 283.65625 L 236.179688 286.519531 C 248.601562 280.757812 259.832031 272.859375 269.390625 263.296875 C 269.808594 262.882812 270.21875 262.464844 270.625 262.042969 L 270.625 258.496094 C 270.625 241.320312 256.660156 227.339844 239.484375 227.339844 " fill-opacity="1" fill-rule="nonzero"/><path fill="#ffffff" d="M 213.242188 226.464844 C 213.242188 239.90625 202.347656 250.804688 188.90625 250.804688 C 175.464844 250.804688 164.570312 239.90625 164.570312 226.464844 C 164.570312 213.03125 175.464844 202.144531 188.90625 202.144531 C 202.347656 202.144531 213.242188 213.03125 213.242188 226.464844 " fill-opacity="1" fill-rule="nonzero"/><path fill="#ffa25f" d="M 244.964844 176.507812 C 252.632812 181.308594 258.007812 189.453125 258.992188 198.902344 C 262.113281 200.363281 265.59375 201.195312 269.277344 201.195312 C 282.714844 201.195312 293.601562 190.3125 293.601562 176.875 C 293.601562 163.433594 282.714844 152.550781 269.277344 152.550781 C 255.957031 152.539062 245.160156 163.238281 244.964844 176.507812 " fill-opacity="1" fill-rule="nonzero"/><path fill="#ec407a" d="M 146.214844 177.023438 C 132.765625 177.023438 121.878906 187.917969 121.878906 201.359375 C 121.878906 214.789062 132.765625 225.679688 146.214844 225.679688 C 150.96875 225.679688 155.398438 224.292969 159.152344 221.921875 C 160.34375 214.148438 164.507812 207.351562 170.46875 202.722656 C 170.492188 202.265625 170.542969 201.8125 170.542969 201.359375 C 170.542969 187.917969 159.640625 177.023438 146.214844 177.023438 " fill-opacity="1" fill-rule="nonzero"/><path fill="#ec407a" d="M 229.152344 225.679688 C 242.59375 225.679688 253.488281 214.800781 253.488281 201.359375 C 253.488281 187.917969 242.59375 177.023438 229.152344 177.023438 C 215.847656 177.023438 205.046875 187.71875 204.839844 200.988281 C 212.523438 205.792969 217.902344 213.9375 218.882812 223.386719 C 222.003906 224.847656 225.480469 225.679688 229.152344 225.679688 " fill-opacity="1" fill-rule="nonzero"/><g clip-path="url(#583c9727c6)"><g clip-path="url(#bb7137d5ad)"><path fill="#ffffff" d="M 145.285156 98.140625 L 216.800781 98.140625 L 216.800781 169.65625 L 145.285156 169.65625 Z M 145.285156 98.140625 " fill-opacity="1" fill-rule="nonzero"/></g></g></svg>