<svg xmlns="http://www.w3.org/2000/svg" xmlns:xlink="http://www.w3.org/1999/xlink" width="500" zoomAndPan="magnify" viewBox="0 0 375 374.999991" height="500" preserveAspectRatio="xMidYMid meet" version="1.0"><defs><clipPath id="669fb38c42"><path d="M 81 80 L 280 80 L 280 323.519531 L 81 323.519531 Z M 81 80 " clip-rule="nonzero"/></clipPath><clipPath id="a35d6d3ca9"><path d="M 80.992188 51.269531 L 280 51.269531 L 280 83 L 80.992188 83 Z M 80.992188 51.269531 " clip-rule="nonzero"/></clipPath><clipPath id="45200b0cfa"><path d="M 288 176 L 293.992188 176 L 293.992188 183 L 288 183 Z M 288 176 " clip-rule="nonzero"/></clipPath></defs><path fill="#ffffff" d="M 278.195312 306.535156 C 278.195312 315.246094 271.117188 322.320312 262.398438 322.320312 L 97.660156 322.320312 C 88.941406 322.320312 81.863281 315.246094 81.863281 306.535156 L 81.863281 81.582031 L 278.246094 81.582031 L 278.246094 306.535156 Z M 278.195312 306.535156 " fill-opacity="1" fill-rule="nonzero"/><g clip-path="url(#669fb38c42)"><path fill="#000000" d="M 277.375 306.535156 C 277.324219 313.660156 272.195312 319.910156 265.167969 321.242188 C 263.785156 321.5 262.449219 321.5 261.066406 321.5 C 257.015625 321.5 253.015625 321.5 248.960938 321.5 C 241.730469 321.5 234.5 321.5 227.265625 321.5 C 218.035156 321.5 208.804688 321.5 199.621094 321.5 C 189.621094 321.5 179.621094 321.5 169.566406 321.5 C 159.976562 321.5 150.386719 321.5 140.796875 321.5 C 132.84375 321.5 124.84375 321.5 116.894531 321.5 C 111.765625 321.5 106.636719 321.5 101.457031 321.5 C 100.328125 321.5 99.199219 321.5 98.070312 321.5 C 94.328125 321.5 90.738281 320.371094 87.867188 317.859375 C 84.480469 314.941406 82.6875 310.789062 82.6875 306.328125 C 82.6875 305.558594 82.6875 304.792969 82.6875 304.023438 C 82.6875 300.230469 82.6875 296.4375 82.6875 292.644531 C 82.6875 286.339844 82.6875 279.984375 82.6875 273.679688 C 82.6875 265.480469 82.6875 257.332031 82.6875 249.128906 C 82.6875 239.699219 82.6875 230.320312 82.6875 220.890625 C 82.6875 210.894531 82.6875 200.902344 82.6875 190.90625 C 82.6875 180.964844 82.6875 171.070312 82.6875 161.128906 C 82.6875 151.902344 82.6875 142.726562 82.6875 133.503906 C 82.6875 125.660156 82.6875 117.820312 82.6875 109.925781 C 82.6875 104.082031 82.6875 98.238281 82.6875 92.398438 C 82.6875 89.21875 82.6875 85.988281 82.6875 82.8125 C 82.6875 82.402344 82.6875 81.992188 82.6875 81.582031 C 82.429688 81.839844 82.121094 82.144531 81.863281 82.402344 C 83.609375 82.402344 85.351562 82.402344 87.148438 82.402344 C 91.917969 82.402344 96.6875 82.402344 101.457031 82.402344 C 108.484375 82.402344 115.511719 82.402344 122.535156 82.402344 C 131.152344 82.402344 139.71875 82.402344 148.335938 82.402344 C 157.773438 82.402344 167.15625 82.402344 176.59375 82.402344 C 186.082031 82.402344 195.621094 82.402344 205.109375 82.402344 C 213.984375 82.402344 222.855469 82.402344 231.730469 82.402344 C 239.164062 82.402344 246.652344 82.402344 254.089844 82.402344 C 259.476562 82.402344 264.863281 82.402344 270.246094 82.402344 C 271.9375 82.402344 273.582031 82.402344 275.273438 82.402344 C 276.144531 82.402344 277.066406 82.503906 277.941406 82.402344 C 278.042969 82.402344 278.144531 82.402344 278.246094 82.402344 C 277.992188 82.144531 277.683594 81.839844 277.425781 81.582031 C 277.425781 83.582031 277.425781 85.578125 277.425781 87.628906 C 277.425781 93.113281 277.425781 98.546875 277.425781 104.03125 C 277.425781 112.128906 277.425781 120.175781 277.425781 128.273438 C 277.425781 138.113281 277.425781 147.90625 277.425781 157.746094 C 277.425781 168.558594 277.425781 179.324219 277.425781 190.136719 C 277.425781 201.003906 277.425781 211.867188 277.425781 222.683594 C 277.425781 232.832031 277.425781 242.980469 277.425781 253.179688 C 277.425781 261.738281 277.425781 270.347656 277.425781 278.910156 C 277.425781 285.058594 277.425781 291.261719 277.425781 297.410156 C 277.425781 300.332031 277.375 303.253906 277.425781 306.175781 C 277.375 306.277344 277.375 306.378906 277.375 306.535156 C 277.375 307.609375 279.066406 307.609375 279.066406 306.535156 C 279.066406 304.535156 279.066406 302.535156 279.066406 300.484375 C 279.066406 295.003906 279.066406 289.570312 279.066406 284.085938 C 279.066406 275.988281 279.066406 267.941406 279.066406 259.84375 C 279.066406 250 279.066406 240.210938 279.066406 230.371094 C 279.066406 219.558594 279.066406 208.792969 279.066406 197.980469 C 279.066406 187.113281 279.066406 176.246094 279.066406 165.433594 C 279.066406 155.285156 279.066406 145.136719 279.066406 134.9375 C 279.066406 126.378906 279.066406 117.765625 279.066406 109.207031 C 279.066406 103.058594 279.066406 96.855469 279.066406 90.707031 C 279.066406 87.785156 279.121094 84.863281 279.066406 81.941406 C 279.066406 81.839844 279.066406 81.683594 279.066406 81.582031 C 279.066406 81.121094 278.710938 80.761719 278.246094 80.761719 C 276.503906 80.761719 274.761719 80.761719 272.964844 80.761719 C 268.195312 80.761719 263.425781 80.761719 258.65625 80.761719 C 251.628906 80.761719 244.601562 80.761719 237.574219 80.761719 C 228.960938 80.761719 220.394531 80.761719 211.777344 80.761719 C 202.339844 80.761719 192.957031 80.761719 183.519531 80.761719 C 174.03125 80.761719 164.492188 80.761719 155.003906 80.761719 C 146.128906 80.761719 137.257812 80.761719 128.382812 80.761719 C 120.945312 80.761719 113.457031 80.761719 106.023438 80.761719 C 100.636719 80.761719 95.25 80.761719 89.867188 80.761719 C 87.300781 80.761719 84.738281 80.710938 82.222656 80.761719 C 82.121094 80.761719 82.019531 80.761719 81.917969 80.761719 C 81.453125 80.761719 81.09375 81.121094 81.09375 81.582031 C 81.09375 83.324219 81.09375 85.066406 81.09375 86.808594 C 81.09375 91.527344 81.09375 96.292969 81.09375 101.007812 C 81.09375 108.082031 81.09375 115.152344 81.09375 122.226562 C 81.09375 130.992188 81.09375 139.703125 81.09375 148.46875 C 81.09375 158.207031 81.09375 167.996094 81.09375 177.734375 C 81.09375 187.882812 81.09375 198.03125 81.09375 208.230469 C 81.09375 218.019531 81.09375 227.859375 81.09375 237.648438 C 81.09375 246.515625 81.09375 255.332031 81.09375 264.199219 C 81.09375 271.425781 81.09375 278.652344 81.09375 285.929688 C 81.09375 290.851562 81.09375 295.769531 81.09375 300.640625 C 81.09375 302.585938 81.09375 304.535156 81.09375 306.535156 C 81.148438 312.324219 84.121094 317.757812 89.097656 320.78125 C 91.867188 322.472656 95.046875 323.191406 98.277344 323.191406 C 101.714844 323.191406 105.148438 323.191406 108.585938 323.191406 C 115.511719 323.191406 122.433594 323.191406 129.359375 323.191406 C 138.4375 323.191406 147.566406 323.191406 156.644531 323.191406 C 166.695312 323.191406 176.75 323.191406 186.800781 323.191406 C 196.597656 323.191406 206.445312 323.191406 216.238281 323.191406 C 224.496094 323.191406 232.753906 323.191406 241.011719 323.191406 C 246.550781 323.191406 252.039062 323.191406 257.578125 323.191406 C 261.578125 323.191406 265.425781 323.398438 269.222656 321.757812 C 275.222656 319.089844 279.015625 313.042969 279.066406 306.585938 C 279.066406 305.457031 277.375 305.457031 277.375 306.535156 Z M 277.375 306.535156 " fill-opacity="1" fill-rule="nonzero"/></g><path fill="#000000" d="M 97.660156 52.316406 L 262.398438 52.316406 C 271.117188 52.316406 278.195312 59.390625 278.195312 68.101562 L 278.195312 81.632812 L 81.863281 81.632812 L 81.863281 68.101562 C 81.863281 59.390625 88.941406 52.316406 97.660156 52.316406 Z M 97.660156 52.316406 " fill-opacity="1" fill-rule="nonzero"/><g clip-path="url(#a35d6d3ca9)"><path fill="#000000" d="M 97.660156 53.136719 C 99.609375 53.136719 101.558594 53.136719 103.457031 53.136719 C 108.636719 53.136719 113.816406 53.136719 118.996094 53.136719 C 126.433594 53.136719 133.921875 53.136719 141.359375 53.136719 C 150.179688 53.136719 158.949219 53.136719 167.773438 53.136719 C 177.003906 53.136719 186.289062 53.136719 195.519531 53.136719 C 204.1875 53.136719 212.90625 53.136719 221.574219 53.136719 C 228.804688 53.136719 236.039062 53.136719 243.269531 53.136719 C 248.089844 53.136719 252.960938 53.136719 257.785156 53.136719 C 260.808594 53.136719 263.9375 52.929688 266.863281 53.855469 C 272.863281 55.75 277.121094 61.441406 277.324219 67.691406 C 277.425781 71.179688 277.324219 74.664062 277.324219 78.148438 C 277.324219 79.328125 277.324219 80.453125 277.324219 81.632812 C 277.582031 81.378906 277.886719 81.070312 278.144531 80.8125 C 276.402344 80.8125 274.605469 80.8125 272.863281 80.8125 C 268.09375 80.8125 263.375 80.8125 258.605469 80.8125 C 251.578125 80.8125 244.5 80.8125 237.472656 80.8125 C 228.855469 80.8125 220.292969 80.8125 211.675781 80.8125 C 202.289062 80.8125 192.902344 80.8125 183.519531 80.8125 C 173.980469 80.8125 164.4375 80.8125 154.898438 80.8125 C 146.078125 80.8125 137.257812 80.8125 128.382812 80.8125 C 120.894531 80.8125 113.40625 80.8125 105.917969 80.8125 C 100.535156 80.8125 95.148438 80.8125 89.761719 80.8125 C 87.25 80.8125 84.632812 80.609375 82.121094 80.8125 C 82.019531 80.8125 81.917969 80.8125 81.761719 80.8125 C 82.019531 81.070312 82.328125 81.378906 82.582031 81.632812 C 82.582031 77.996094 82.582031 74.304688 82.582031 70.664062 C 82.582031 68.972656 82.480469 67.28125 82.789062 65.640625 C 83.351562 62.414062 84.941406 59.441406 87.351562 57.1875 C 90.226562 54.570312 93.867188 53.1875 97.660156 53.136719 C 98.738281 53.136719 98.738281 51.445312 97.660156 51.445312 C 90.636719 51.496094 84.277344 55.957031 81.917969 62.617188 C 81.148438 64.769531 80.992188 67.027344 80.992188 69.28125 C 80.992188 71.585938 80.992188 73.894531 80.992188 76.199219 C 80.992188 77.996094 80.992188 79.789062 80.992188 81.632812 C 80.992188 82.09375 81.351562 82.453125 81.8125 82.453125 C 83.558594 82.453125 85.351562 82.453125 87.097656 82.453125 C 91.867188 82.453125 96.585938 82.453125 101.355469 82.453125 C 108.382812 82.453125 115.457031 82.453125 122.484375 82.453125 C 131.101562 82.453125 139.667969 82.453125 148.285156 82.453125 C 157.667969 82.453125 167.054688 82.453125 176.441406 82.453125 C 185.980469 82.453125 195.519531 82.453125 205.058594 82.453125 C 213.878906 82.453125 222.703125 82.453125 231.574219 82.453125 C 239.0625 82.453125 246.550781 82.453125 254.039062 82.453125 C 259.425781 82.453125 264.808594 82.453125 270.195312 82.453125 C 272.757812 82.453125 275.273438 82.503906 277.835938 82.453125 C 277.941406 82.453125 278.042969 82.453125 278.195312 82.453125 C 278.65625 82.453125 279.015625 82.09375 279.015625 81.632812 C 279.015625 78.148438 279.015625 74.664062 279.015625 71.125 C 279.015625 69.792969 279.066406 68.460938 278.964844 67.128906 C 278.761719 64.054688 277.734375 61.03125 275.992188 58.519531 C 272.863281 54.058594 267.785156 51.445312 262.347656 51.445312 C 261.679688 51.445312 261.066406 51.445312 260.398438 51.445312 C 256.449219 51.445312 252.5 51.445312 248.550781 51.445312 C 241.882812 51.445312 235.164062 51.445312 228.5 51.445312 C 220.035156 51.445312 211.574219 51.445312 203.109375 51.445312 C 193.878906 51.445312 184.648438 51.445312 175.414062 51.445312 C 166.285156 51.445312 157.207031 51.445312 148.078125 51.445312 C 140.078125 51.445312 132.128906 51.445312 124.125 51.445312 C 118.226562 51.445312 112.382812 51.445312 106.484375 51.445312 C 103.609375 51.445312 100.789062 51.394531 97.917969 51.445312 C 97.816406 51.445312 97.660156 51.445312 97.558594 51.445312 C 96.585938 51.445312 96.585938 53.136719 97.660156 53.136719 Z M 97.660156 53.136719 " fill-opacity="1" fill-rule="nonzero"/></g><path fill="#000000" d="M 127.304688 216.941406 C 128.589844 216.941406 129.871094 216.941406 131.152344 216.941406 C 134.539062 216.941406 137.921875 216.941406 141.359375 216.941406 C 146.179688 216.941406 151.054688 216.941406 155.875 216.941406 C 161.464844 216.941406 167.105469 216.941406 172.695312 216.941406 C 178.390625 216.941406 184.082031 216.941406 189.773438 216.941406 C 194.902344 216.941406 200.085938 216.941406 205.214844 216.941406 C 209.109375 216.941406 213.007812 216.941406 216.90625 216.941406 C 218.90625 216.941406 220.855469 216.941406 222.855469 216.941406 C 224.546875 216.941406 226.292969 216.738281 227.882812 216.175781 C 231.472656 214.945312 234.550781 212.226562 236.191406 208.792969 C 237.882812 205.257812 238.089844 201.054688 236.652344 197.363281 C 235.214844 193.777344 232.394531 190.804688 228.855469 189.316406 C 226.960938 188.496094 225.011719 188.191406 222.957031 188.191406 C 222.292969 188.191406 221.625 188.191406 220.957031 188.191406 C 218.035156 188.191406 215.058594 188.191406 212.136719 188.191406 C 207.574219 188.191406 203.007812 188.191406 198.496094 188.191406 C 193.007812 188.191406 187.570312 188.191406 182.082031 188.191406 C 176.335938 188.191406 170.59375 188.191406 164.847656 188.191406 C 159.515625 188.191406 154.179688 188.191406 148.898438 188.191406 C 144.640625 188.191406 140.386719 188.191406 136.078125 188.191406 C 133.5625 188.191406 131.050781 188.191406 128.539062 188.191406 C 128.125 188.191406 127.769531 188.191406 127.359375 188.191406 C 123.765625 188.191406 120.28125 189.523438 117.613281 191.980469 C 114.6875 194.648438 112.996094 198.441406 112.945312 202.335938 C 112.894531 206.230469 114.433594 210.023438 117.152344 212.792969 C 119.816406 215.40625 123.511719 216.890625 127.304688 216.941406 C 128.382812 216.941406 128.382812 215.25 127.304688 215.25 C 123.511719 215.25 119.921875 213.558594 117.511719 210.640625 C 115.101562 207.769531 114.125 203.875 114.792969 200.234375 C 115.921875 194.136719 121.304688 189.828125 127.460938 189.828125 C 129.152344 189.828125 130.898438 189.828125 132.589844 189.828125 C 136.230469 189.828125 139.871094 189.828125 143.511719 189.828125 C 148.4375 189.828125 153.359375 189.828125 158.285156 189.828125 C 163.875 189.828125 169.414062 189.828125 175.003906 189.828125 C 180.59375 189.828125 186.183594 189.828125 191.722656 189.828125 C 196.699219 189.828125 201.621094 189.828125 206.597656 189.828125 C 210.289062 189.828125 213.984375 189.828125 217.675781 189.828125 C 219.472656 189.828125 221.265625 189.828125 223.0625 189.828125 C 225.113281 189.828125 227.113281 190.238281 228.960938 191.164062 C 232.242188 192.800781 234.753906 195.878906 235.628906 199.464844 C 236.550781 203.105469 235.78125 207.050781 233.574219 210.074219 C 231.421875 213.097656 227.882812 214.996094 224.136719 215.25 C 222.703125 215.355469 221.265625 215.304688 219.832031 215.304688 C 216.597656 215.304688 213.367188 215.304688 210.136719 215.304688 C 205.46875 215.304688 200.855469 215.304688 196.1875 215.304688 C 190.699219 215.304688 185.210938 215.304688 179.722656 215.304688 C 174.082031 215.304688 168.4375 215.304688 162.796875 215.304688 C 157.617188 215.304688 152.488281 215.304688 147.308594 215.304688 C 143.257812 215.304688 139.207031 215.304688 135.152344 215.304688 C 132.84375 215.304688 130.539062 215.304688 128.230469 215.304688 C 127.921875 215.304688 127.613281 215.304688 127.304688 215.304688 C 126.230469 215.25 126.230469 216.941406 127.304688 216.941406 Z M 127.304688 216.941406 " fill-opacity="1" fill-rule="nonzero"/><path fill="#000000" d="M 127.304688 258.304688 C 128.589844 258.304688 129.871094 258.304688 131.152344 258.304688 C 134.539062 258.304688 137.921875 258.304688 141.359375 258.304688 C 146.179688 258.304688 151.054688 258.304688 155.875 258.304688 C 161.464844 258.304688 167.105469 258.304688 172.695312 258.304688 C 178.390625 258.304688 184.082031 258.304688 189.773438 258.304688 C 194.902344 258.304688 200.085938 258.304688 205.214844 258.304688 C 209.109375 258.304688 213.007812 258.304688 216.90625 258.304688 C 218.90625 258.304688 220.855469 258.304688 222.855469 258.304688 C 224.546875 258.304688 226.292969 258.097656 227.882812 257.535156 C 231.472656 256.304688 234.550781 253.589844 236.191406 250.15625 C 237.882812 246.617188 238.089844 242.414062 236.652344 238.726562 C 235.214844 235.136719 232.394531 232.164062 228.855469 230.679688 C 226.960938 229.859375 225.011719 229.550781 222.957031 229.550781 C 222.292969 229.550781 221.625 229.550781 220.957031 229.550781 C 218.035156 229.550781 215.058594 229.550781 212.136719 229.550781 C 207.574219 229.550781 203.007812 229.550781 198.496094 229.550781 C 193.007812 229.550781 187.570312 229.550781 182.082031 229.550781 C 176.335938 229.550781 170.59375 229.550781 164.847656 229.550781 C 159.515625 229.550781 154.179688 229.550781 148.898438 229.550781 C 144.640625 229.550781 140.386719 229.550781 136.078125 229.550781 C 133.5625 229.550781 131.050781 229.550781 128.539062 229.550781 C 128.125 229.550781 127.769531 229.550781 127.359375 229.550781 C 123.765625 229.550781 120.28125 230.882812 117.613281 233.34375 C 114.6875 236.007812 112.996094 239.800781 112.945312 243.695312 C 112.894531 247.59375 114.433594 251.386719 117.152344 254.152344 C 119.816406 256.765625 123.511719 258.253906 127.304688 258.304688 C 128.382812 258.304688 128.382812 256.613281 127.304688 256.613281 C 123.511719 256.613281 119.921875 254.921875 117.511719 252 C 115.101562 249.128906 114.125 245.234375 114.792969 241.597656 C 115.921875 235.496094 121.304688 231.191406 127.460938 231.191406 C 129.152344 231.191406 130.898438 231.191406 132.589844 231.191406 C 136.230469 231.191406 139.871094 231.191406 143.511719 231.191406 C 148.4375 231.191406 153.359375 231.191406 158.285156 231.191406 C 163.875 231.191406 169.414062 231.191406 175.003906 231.191406 C 180.59375 231.191406 186.183594 231.191406 191.722656 231.191406 C 196.699219 231.191406 201.621094 231.191406 206.597656 231.191406 C 210.289062 231.191406 213.984375 231.191406 217.675781 231.191406 C 219.472656 231.191406 221.265625 231.191406 223.0625 231.191406 C 225.113281 231.191406 227.113281 231.601562 228.960938 232.523438 C 232.242188 234.164062 234.753906 237.238281 235.628906 240.828125 C 236.550781 244.464844 235.78125 248.414062 233.574219 251.4375 C 231.421875 254.460938 227.882812 256.355469 224.136719 256.613281 C 222.703125 256.714844 221.265625 256.664062 219.832031 256.664062 C 216.597656 256.664062 213.367188 256.664062 210.136719 256.664062 C 205.46875 256.664062 200.855469 256.664062 196.1875 256.664062 C 190.699219 256.664062 185.210938 256.664062 179.722656 256.664062 C 174.082031 256.664062 168.4375 256.664062 162.796875 256.664062 C 157.617188 256.664062 152.488281 256.664062 147.308594 256.664062 C 143.257812 256.664062 139.207031 256.664062 135.152344 256.664062 C 132.84375 256.664062 130.539062 256.664062 128.230469 256.664062 C 127.921875 256.664062 127.613281 256.664062 127.304688 256.664062 C 126.230469 256.613281 126.230469 258.304688 127.304688 258.304688 Z M 127.304688 258.304688 " fill-opacity="1" fill-rule="nonzero"/><path fill="#000000" d="M 228.960938 285.675781 C 227.984375 285.675781 227.011719 285.675781 226.085938 285.675781 C 223.472656 285.675781 220.855469 285.675781 218.1875 285.675781 C 214.34375 285.675781 210.445312 285.675781 206.597656 285.675781 C 201.828125 285.675781 197.058594 285.675781 192.339844 285.675781 C 187.160156 285.675781 181.980469 285.675781 176.800781 285.675781 C 171.566406 285.675781 166.335938 285.675781 161.054688 285.675781 C 156.179688 285.675781 151.257812 285.675781 146.386719 285.675781 C 142.28125 285.675781 138.179688 285.675781 134.023438 285.675781 C 131.050781 285.675781 128.074219 285.675781 125.101562 285.675781 C 123.714844 285.675781 122.28125 285.621094 120.894531 285.675781 C 120.84375 285.675781 120.792969 285.675781 120.691406 285.675781 C 119.613281 285.675781 119.613281 287.367188 120.691406 287.367188 C 121.664062 287.367188 122.640625 287.367188 123.5625 287.367188 C 126.179688 287.367188 128.792969 287.367188 131.460938 287.367188 C 135.308594 287.367188 139.207031 287.367188 143.050781 287.367188 C 147.820312 287.367188 152.589844 287.367188 157.308594 287.367188 C 162.488281 287.367188 167.671875 287.367188 172.851562 287.367188 C 178.082031 287.367188 183.3125 287.367188 188.597656 287.367188 C 193.46875 287.367188 198.390625 287.367188 203.265625 287.367188 C 207.367188 287.367188 211.46875 287.367188 215.625 287.367188 C 218.597656 287.367188 221.574219 287.367188 224.546875 287.367188 C 225.933594 287.367188 227.371094 287.417969 228.753906 287.367188 C 228.804688 287.367188 228.855469 287.367188 228.960938 287.367188 C 230.035156 287.367188 230.035156 285.675781 228.960938 285.675781 Z M 228.960938 285.675781 " fill-opacity="1" fill-rule="nonzero"/><path fill="#000000" d="M 207.417969 298.539062 C 205.570312 298.539062 203.726562 298.539062 201.878906 298.539062 C 197.46875 298.539062 193.109375 298.539062 188.699219 298.539062 C 183.363281 298.539062 177.980469 298.539062 172.644531 298.539062 C 168.027344 298.539062 163.464844 298.539062 158.847656 298.539062 C 156.59375 298.539062 154.335938 298.4375 152.078125 298.539062 C 152.027344 298.539062 152.027344 298.539062 151.976562 298.539062 C 150.898438 298.539062 150.898438 300.230469 151.976562 300.230469 C 153.824219 300.230469 155.667969 300.230469 157.515625 300.230469 C 161.925781 300.230469 166.285156 300.230469 170.695312 300.230469 C 176.03125 300.230469 181.414062 300.230469 186.75 300.230469 C 191.367188 300.230469 195.929688 300.230469 200.546875 300.230469 C 202.800781 300.230469 205.058594 300.332031 207.316406 300.230469 C 207.367188 300.230469 207.367188 300.230469 207.417969 300.230469 C 208.496094 300.230469 208.496094 298.539062 207.417969 298.539062 Z M 207.417969 298.539062 " fill-opacity="1" fill-rule="nonzero"/><path fill="#de3b3d" d="M 104.378906 69.078125 C 104.378906 69.347656 104.355469 69.617188 104.300781 69.886719 C 104.246094 70.152344 104.167969 70.414062 104.0625 70.664062 C 103.960938 70.917969 103.832031 71.15625 103.679688 71.382812 C 103.527344 71.609375 103.355469 71.820312 103.164062 72.011719 C 102.972656 72.203125 102.761719 72.375 102.535156 72.527344 C 102.308594 72.679688 102.066406 72.808594 101.816406 72.910156 C 101.5625 73.015625 101.304688 73.09375 101.035156 73.148438 C 100.769531 73.203125 100.5 73.226562 100.226562 73.226562 C 99.953125 73.226562 99.683594 73.203125 99.414062 73.148438 C 99.148438 73.09375 98.886719 73.015625 98.636719 72.910156 C 98.382812 72.808594 98.144531 72.679688 97.917969 72.527344 C 97.691406 72.375 97.480469 72.203125 97.289062 72.011719 C 97.097656 71.820312 96.921875 71.609375 96.773438 71.382812 C 96.621094 71.15625 96.492188 70.917969 96.386719 70.664062 C 96.285156 70.414062 96.203125 70.152344 96.152344 69.886719 C 96.097656 69.617188 96.070312 69.347656 96.070312 69.078125 C 96.070312 68.804688 96.097656 68.535156 96.152344 68.265625 C 96.203125 68 96.285156 67.738281 96.386719 67.488281 C 96.492188 67.234375 96.621094 66.996094 96.773438 66.769531 C 96.921875 66.542969 97.09375 66.332031 97.289062 66.140625 C 97.480469 65.949219 97.691406 65.777344 97.917969 65.625 C 98.144531 65.472656 98.382812 65.34375 98.636719 65.242188 C 98.886719 65.136719 99.148438 65.058594 99.414062 65.003906 C 99.683594 64.953125 99.953125 64.925781 100.226562 64.925781 C 100.5 64.925781 100.769531 64.953125 101.035156 65.003906 C 101.304688 65.058594 101.5625 65.136719 101.816406 65.242188 C 102.066406 65.34375 102.308594 65.472656 102.535156 65.625 C 102.761719 65.777344 102.972656 65.949219 103.164062 66.140625 C 103.355469 66.332031 103.527344 66.542969 103.679688 66.769531 C 103.832031 66.996094 103.960938 67.234375 104.0625 67.488281 C 104.167969 67.738281 104.246094 68 104.300781 68.265625 C 104.355469 68.535156 104.378906 68.804688 104.378906 69.078125 Z M 104.378906 69.078125 " fill-opacity="1" fill-rule="nonzero"/><path fill="#f3b640" d="M 120.484375 69.078125 C 120.484375 69.347656 120.457031 69.617188 120.40625 69.886719 C 120.351562 70.152344 120.273438 70.414062 120.167969 70.664062 C 120.0625 70.917969 119.9375 71.15625 119.785156 71.382812 C 119.632812 71.609375 119.460938 71.820312 119.269531 72.011719 C 119.074219 72.203125 118.867188 72.375 118.640625 72.527344 C 118.410156 72.679688 118.171875 72.808594 117.921875 72.910156 C 117.667969 73.015625 117.410156 73.09375 117.140625 73.148438 C 116.875 73.203125 116.601562 73.226562 116.332031 73.226562 C 116.058594 73.226562 115.789062 73.203125 115.519531 73.148438 C 115.253906 73.09375 114.992188 73.015625 114.742188 72.910156 C 114.488281 72.808594 114.25 72.679688 114.023438 72.527344 C 113.796875 72.375 113.585938 72.203125 113.394531 72.011719 C 113.199219 71.820312 113.027344 71.609375 112.875 71.382812 C 112.726562 71.15625 112.597656 70.917969 112.492188 70.664062 C 112.386719 70.414062 112.308594 70.152344 112.257812 69.886719 C 112.203125 69.617188 112.175781 69.347656 112.175781 69.078125 C 112.175781 68.804688 112.203125 68.535156 112.257812 68.265625 C 112.308594 68 112.386719 67.738281 112.492188 67.488281 C 112.597656 67.234375 112.726562 66.996094 112.875 66.769531 C 113.027344 66.542969 113.199219 66.332031 113.394531 66.140625 C 113.585938 65.949219 113.796875 65.777344 114.023438 65.625 C 114.25 65.472656 114.488281 65.34375 114.742188 65.242188 C 114.992188 65.136719 115.253906 65.058594 115.519531 65.003906 C 115.789062 64.953125 116.058594 64.925781 116.332031 64.925781 C 116.601562 64.925781 116.875 64.953125 117.140625 65.003906 C 117.410156 65.058594 117.667969 65.136719 117.921875 65.242188 C 118.171875 65.34375 118.410156 65.472656 118.636719 65.625 C 118.867188 65.777344 119.074219 65.949219 119.269531 66.140625 C 119.460938 66.332031 119.632812 66.542969 119.785156 66.769531 C 119.9375 66.996094 120.0625 67.234375 120.167969 67.488281 C 120.273438 67.738281 120.351562 68 120.40625 68.265625 C 120.457031 68.535156 120.484375 68.804688 120.484375 69.078125 Z M 120.484375 69.078125 " fill-opacity="1" fill-rule="nonzero"/><path fill="#4a9752" d="M 136.640625 69.078125 C 136.640625 69.347656 136.613281 69.617188 136.5625 69.886719 C 136.507812 70.152344 136.429688 70.414062 136.324219 70.664062 C 136.21875 70.917969 136.09375 71.15625 135.941406 71.382812 C 135.789062 71.609375 135.617188 71.820312 135.425781 72.011719 C 135.230469 72.203125 135.019531 72.375 134.792969 72.527344 C 134.566406 72.679688 134.328125 72.808594 134.078125 72.910156 C 133.824219 73.015625 133.5625 73.09375 133.296875 73.148438 C 133.03125 73.203125 132.757812 73.226562 132.488281 73.226562 C 132.214844 73.226562 131.945312 73.203125 131.675781 73.148438 C 131.410156 73.09375 131.148438 73.015625 130.898438 72.910156 C 130.644531 72.808594 130.40625 72.679688 130.179688 72.527344 C 129.953125 72.375 129.742188 72.203125 129.550781 72.011719 C 129.355469 71.820312 129.183594 71.609375 129.03125 71.382812 C 128.878906 71.15625 128.753906 70.917969 128.648438 70.664062 C 128.542969 70.414062 128.464844 70.152344 128.410156 69.886719 C 128.359375 69.617188 128.332031 69.347656 128.332031 69.078125 C 128.332031 68.804688 128.359375 68.535156 128.410156 68.265625 C 128.464844 68 128.542969 67.738281 128.648438 67.488281 C 128.753906 67.234375 128.878906 66.996094 129.03125 66.769531 C 129.183594 66.542969 129.355469 66.332031 129.550781 66.140625 C 129.742188 65.949219 129.953125 65.777344 130.179688 65.625 C 130.40625 65.472656 130.644531 65.34375 130.898438 65.242188 C 131.148438 65.136719 131.410156 65.058594 131.675781 65.003906 C 131.945312 64.953125 132.214844 64.925781 132.488281 64.925781 C 132.757812 64.925781 133.03125 64.953125 133.296875 65.003906 C 133.5625 65.058594 133.824219 65.136719 134.078125 65.242188 C 134.328125 65.34375 134.566406 65.472656 134.792969 65.625 C 135.019531 65.777344 135.230469 65.949219 135.425781 66.140625 C 135.617188 66.332031 135.789062 66.542969 135.941406 66.769531 C 136.09375 66.996094 136.21875 67.234375 136.324219 67.488281 C 136.429688 67.738281 136.507812 68 136.5625 68.265625 C 136.613281 68.535156 136.640625 68.804688 136.640625 69.078125 Z M 136.640625 69.078125 " fill-opacity="1" fill-rule="nonzero"/><g clip-path="url(#45200b0cfa)"><path fill="#000000" d="M 290.300781 181.835938 C 291.273438 180.757812 292.25 179.628906 293.222656 178.554688 C 293.378906 178.398438 293.480469 178.246094 293.632812 178.09375 C 293.941406 177.785156 293.992188 177.222656 293.632812 176.914062 C 293.328125 176.605469 292.761719 176.554688 292.453125 176.914062 C 291.480469 177.988281 290.503906 179.117188 289.53125 180.195312 C 289.378906 180.347656 289.273438 180.5 289.121094 180.65625 C 288.8125 180.964844 288.761719 181.527344 289.121094 181.835938 C 289.429688 182.140625 289.992188 182.191406 290.300781 181.835938 Z M 290.300781 181.835938 " fill-opacity="1" fill-rule="nonzero"/></g><path fill="#ffffff" d="M 215.007812 133.09375 C 215.007812 134.300781 214.949219 135.507812 214.832031 136.710938 C 214.710938 137.910156 214.535156 139.105469 214.300781 140.292969 C 214.0625 141.476562 213.769531 142.648438 213.417969 143.804688 C 213.066406 144.960938 212.660156 146.097656 212.199219 147.214844 C 211.734375 148.332031 211.21875 149.421875 210.648438 150.488281 C 210.078125 151.554688 209.457031 152.589844 208.785156 153.59375 C 208.113281 154.597656 207.394531 155.570312 206.628906 156.503906 C 205.859375 157.4375 205.046875 158.332031 204.195312 159.1875 C 203.339844 160.039062 202.441406 160.851562 201.507812 161.617188 C 200.574219 162.386719 199.601562 163.105469 198.597656 163.773438 C 197.59375 164.445312 196.554688 165.066406 195.488281 165.636719 C 194.421875 166.207031 193.332031 166.722656 192.214844 167.1875 C 191.097656 167.648438 189.957031 168.054688 188.800781 168.40625 C 187.644531 168.757812 186.472656 169.050781 185.285156 169.285156 C 184.101562 169.519531 182.90625 169.699219 181.703125 169.816406 C 180.496094 169.933594 179.292969 169.996094 178.082031 169.996094 C 176.871094 169.996094 175.664062 169.933594 174.460938 169.816406 C 173.257812 169.699219 172.0625 169.519531 170.878906 169.285156 C 169.691406 169.050781 168.519531 168.757812 167.363281 168.40625 C 166.203125 168.054688 165.066406 167.648438 163.949219 167.1875 C 162.832031 166.722656 161.742188 166.207031 160.675781 165.636719 C 159.609375 165.066406 158.570312 164.445312 157.566406 163.773438 C 156.558594 163.105469 155.589844 162.386719 154.65625 161.617188 C 153.71875 160.851562 152.824219 160.039062 151.96875 159.1875 C 151.113281 158.332031 150.304688 157.4375 149.535156 156.503906 C 148.769531 155.570312 148.050781 154.597656 147.378906 153.59375 C 146.707031 152.589844 146.085938 151.554688 145.515625 150.488281 C 144.945312 149.421875 144.429688 148.332031 143.964844 147.214844 C 143.503906 146.097656 143.09375 144.960938 142.746094 143.804688 C 142.394531 142.648438 142.101562 141.476562 141.863281 140.292969 C 141.628906 139.105469 141.449219 137.910156 141.332031 136.710938 C 141.214844 135.507812 141.152344 134.300781 141.152344 133.09375 C 141.152344 131.882812 141.214844 130.679688 141.332031 129.476562 C 141.449219 128.273438 141.628906 127.078125 141.863281 125.894531 C 142.101562 124.707031 142.394531 123.535156 142.746094 122.378906 C 143.09375 121.222656 143.503906 120.085938 143.964844 118.96875 C 144.429688 117.851562 144.945312 116.761719 145.515625 115.695312 C 146.085938 114.628906 146.707031 113.59375 147.378906 112.589844 C 148.050781 111.585938 148.769531 110.617188 149.535156 109.679688 C 150.304688 108.746094 151.113281 107.851562 151.96875 106.996094 C 152.824219 106.144531 153.71875 105.332031 154.65625 104.566406 C 155.589844 103.800781 156.558594 103.082031 157.566406 102.410156 C 158.570312 101.738281 159.609375 101.117188 160.675781 100.546875 C 161.742188 99.976562 162.832031 99.460938 163.949219 99 C 165.066406 98.535156 166.203125 98.128906 167.363281 97.777344 C 168.519531 97.425781 169.691406 97.132812 170.878906 96.898438 C 172.0625 96.664062 173.257812 96.484375 174.460938 96.367188 C 175.664062 96.25 176.871094 96.191406 178.082031 96.191406 C 179.292969 96.191406 180.496094 96.25 181.703125 96.367188 C 182.90625 96.484375 184.101562 96.664062 185.285156 96.898438 C 186.472656 97.132812 187.644531 97.425781 188.800781 97.777344 C 189.957031 98.128906 191.097656 98.535156 192.214844 99 C 193.332031 99.460938 194.421875 99.976562 195.488281 100.546875 C 196.554688 101.117188 197.59375 101.738281 198.597656 102.410156 C 199.601562 103.082031 200.574219 103.800781 201.507812 104.566406 C 202.441406 105.332031 203.339844 106.144531 204.195312 106.996094 C 205.046875 107.851562 205.859375 108.746094 206.628906 109.679688 C 207.394531 110.617188 208.113281 111.585938 208.785156 112.589844 C 209.457031 113.59375 210.078125 114.628906 210.648438 115.695312 C 211.21875 116.761719 211.734375 117.851562 212.199219 118.96875 C 212.660156 120.085938 213.066406 121.222656 213.417969 122.378906 C 213.769531 123.535156 214.0625 124.707031 214.300781 125.894531 C 214.535156 127.078125 214.710938 128.273438 214.832031 129.476562 C 214.949219 130.679688 215.007812 131.882812 215.007812 133.09375 Z M 215.007812 133.09375 " fill-opacity="1" fill-rule="nonzero"/><path fill="#000000" d="M 140.332031 133.09375 C 140.332031 140.882812 142.742188 148.570312 147.308594 154.925781 C 151.769531 161.128906 157.976562 165.894531 165.15625 168.558594 C 172.59375 171.277344 180.851562 171.53125 188.492188 169.378906 C 195.777344 167.277344 202.390625 162.972656 207.214844 157.128906 C 212.136719 151.132812 215.113281 143.753906 215.726562 136.066406 C 216.34375 128.222656 214.445312 120.277344 210.394531 113.566406 C 206.445312 107.105469 200.546875 101.828125 193.671875 98.699219 C 186.441406 95.421875 178.234375 94.550781 170.492188 96.136719 C 163.003906 97.675781 156.078125 101.519531 150.847656 107.003906 C 145.566406 112.539062 142.027344 119.613281 140.847656 127.199219 C 140.488281 129.144531 140.332031 131.09375 140.332031 133.09375 C 140.332031 134.167969 142.027344 134.167969 142.027344 133.09375 C 142.027344 125.609375 144.335938 118.332031 148.695312 112.230469 C 152.898438 106.335938 158.898438 101.726562 165.722656 99.214844 C 172.851562 96.597656 180.699219 96.34375 187.980469 98.394531 C 195.007812 100.390625 201.316406 104.542969 205.984375 110.183594 C 210.648438 115.871094 213.523438 122.945312 214.085938 130.273438 C 214.648438 137.757812 212.855469 145.289062 208.957031 151.75 C 205.214844 157.949219 199.570312 162.921875 192.957031 165.945312 C 186.132812 169.070312 178.285156 169.945312 170.902344 168.40625 C 163.722656 166.917969 157.105469 163.28125 152.027344 158 C 146.898438 152.671875 143.566406 145.855469 142.386719 138.578125 C 142.078125 136.730469 141.976562 134.886719 141.976562 133.039062 C 141.976562 132.015625 140.332031 132.015625 140.332031 133.09375 Z M 140.332031 133.09375 " fill-opacity="1" fill-rule="nonzero"/><path fill="#f37c4a" d="M 178.082031 169.996094 C 167.875 169.996094 158.644531 165.84375 151.976562 159.179688 L 155.464844 148.007812 C 157.414062 141.601562 163.363281 137.191406 170.082031 137.191406 L 183.929688 137.191406 C 190.238281 137.191406 195.929688 141.085938 198.1875 146.980469 L 203.570312 159.796875 C 196.957031 166.097656 187.980469 169.996094 178.082031 169.996094 Z M 178.082031 169.996094 " fill-opacity="1" fill-rule="nonzero"/><path fill="#000000" d="M 178.082031 169.125 C 170.644531 169.125 163.3125 166.816406 157.207031 162.511719 C 155.566406 161.332031 153.976562 160 152.539062 158.566406 C 152.589844 158.820312 152.695312 159.128906 152.746094 159.386719 C 153.875 155.695312 155.054688 152.003906 156.179688 148.3125 C 157.15625 145.085938 159.207031 142.265625 162.027344 140.421875 C 164.542969 138.730469 167.414062 138.011719 170.441406 138.011719 C 174.800781 138.011719 179.160156 138.011719 183.519531 138.011719 C 186.59375 138.011719 189.570312 138.832031 192.132812 140.574219 C 194.699219 142.316406 196.339844 144.777344 197.519531 147.597656 C 199.210938 151.59375 200.90625 155.644531 202.597656 159.640625 C 202.648438 159.742188 202.699219 159.898438 202.75 160 C 202.800781 159.742188 202.90625 159.4375 202.957031 159.179688 C 197.828125 164.050781 191.3125 167.328125 184.339844 168.609375 C 182.289062 168.96875 180.183594 169.125 178.082031 169.125 C 177.003906 169.125 177.003906 170.816406 178.082031 170.816406 C 185.621094 170.816406 193.109375 168.558594 199.316406 164.253906 C 201.007812 163.074219 202.648438 161.792969 204.136719 160.359375 C 204.339844 160.152344 204.445312 159.796875 204.339844 159.539062 C 202.699219 155.644531 201.058594 151.75 199.417969 147.851562 C 199.160156 147.238281 198.90625 146.570312 198.597656 145.90625 C 197.777344 144.058594 196.597656 142.367188 195.210938 140.984375 C 192.289062 138.113281 188.339844 136.421875 184.238281 136.320312 C 179.929688 136.21875 175.671875 136.320312 171.363281 136.320312 C 168.746094 136.320312 166.183594 136.578125 163.722656 137.601562 C 160.078125 139.140625 157.054688 142.0625 155.414062 145.648438 C 154.539062 147.546875 154.027344 149.648438 153.414062 151.59375 C 152.695312 153.902344 151.976562 156.15625 151.308594 158.460938 C 151.257812 158.617188 151.207031 158.769531 151.15625 158.925781 C 151.054688 159.230469 151.15625 159.539062 151.359375 159.742188 C 156.746094 165.125 163.773438 168.816406 171.261719 170.199219 C 173.515625 170.609375 175.773438 170.816406 178.03125 170.816406 C 179.160156 170.816406 179.160156 169.125 178.082031 169.125 Z M 178.082031 169.125 " fill-opacity="1" fill-rule="nonzero"/><path fill="#000000" d="M 182.03125 107.925781 L 186.953125 107.925781 C 189.929688 107.925781 192.390625 110.335938 192.390625 113.359375 C 192.390625 118.691406 188.082031 122.996094 182.75 122.996094 L 178.851562 122.996094 Z M 182.03125 107.925781 " fill-opacity="1" fill-rule="nonzero"/><path fill="#000000" d="M 182.03125 108.746094 C 183.46875 108.746094 184.902344 108.746094 186.339844 108.746094 C 187.109375 108.746094 187.828125 108.746094 188.597656 109.054688 C 189.722656 109.464844 190.648438 110.386719 191.160156 111.464844 C 192.132812 113.667969 191.261719 116.484375 189.980469 118.382812 C 188.542969 120.433594 186.238281 121.816406 183.722656 122.074219 C 182.132812 122.226562 180.441406 122.125 178.851562 122.125 C 179.109375 122.484375 179.414062 122.839844 179.671875 123.199219 C 180.59375 118.792969 181.519531 114.4375 182.492188 110.027344 C 182.644531 109.414062 182.75 108.746094 182.902344 108.132812 C 183.109375 107.054688 181.519531 106.644531 181.261719 107.671875 C 180.339844 112.078125 179.414062 116.433594 178.441406 120.84375 C 178.285156 121.457031 178.183594 122.125 178.03125 122.738281 C 177.929688 123.25 178.285156 123.816406 178.851562 123.816406 C 180.390625 123.816406 181.929688 123.917969 183.46875 123.765625 C 186.339844 123.558594 189.109375 122.125 190.902344 119.867188 C 192.648438 117.714844 193.671875 114.589844 193.058594 111.820312 C 192.390625 109.003906 189.828125 107.105469 186.953125 107.054688 C 185.3125 107.054688 183.671875 107.054688 182.03125 107.054688 C 180.953125 107.105469 180.902344 108.746094 182.03125 108.746094 Z M 182.03125 108.746094 " fill-opacity="1" fill-rule="nonzero"/><path fill="#9d5635" d="M 185.773438 123.507812 C 185.773438 124.039062 185.722656 124.566406 185.621094 125.085938 C 185.515625 125.609375 185.363281 126.117188 185.15625 126.605469 C 184.953125 127.097656 184.703125 127.566406 184.410156 128.007812 C 184.113281 128.449219 183.777344 128.859375 183.402344 129.234375 C 183.023438 129.609375 182.617188 129.945312 182.171875 130.242188 C 181.730469 130.535156 181.265625 130.785156 180.773438 130.988281 C 180.28125 131.191406 179.773438 131.347656 179.253906 131.449219 C 178.730469 131.554688 178.203125 131.605469 177.671875 131.605469 C 177.140625 131.605469 176.613281 131.554688 176.089844 131.449219 C 175.570312 131.347656 175.0625 131.191406 174.570312 130.988281 C 174.078125 130.785156 173.613281 130.535156 173.167969 130.242188 C 172.726562 129.945312 172.316406 129.609375 171.941406 129.234375 C 171.566406 128.859375 171.230469 128.449219 170.933594 128.007812 C 170.636719 127.566406 170.386719 127.097656 170.183594 126.605469 C 169.980469 126.117188 169.828125 125.609375 169.722656 125.085938 C 169.621094 124.566406 169.566406 124.039062 169.566406 123.507812 C 169.566406 122.976562 169.621094 122.449219 169.722656 121.929688 C 169.828125 121.40625 169.980469 120.898438 170.183594 120.410156 C 170.386719 119.917969 170.636719 119.449219 170.933594 119.007812 C 171.230469 118.566406 171.566406 118.15625 171.941406 117.78125 C 172.316406 117.40625 172.726562 117.070312 173.167969 116.773438 C 173.613281 116.480469 174.078125 116.230469 174.570312 116.027344 C 175.0625 115.824219 175.570312 115.667969 176.089844 115.566406 C 176.613281 115.460938 177.140625 115.410156 177.671875 115.410156 C 178.203125 115.410156 178.730469 115.460938 179.253906 115.566406 C 179.773438 115.667969 180.28125 115.824219 180.773438 116.027344 C 181.265625 116.230469 181.730469 116.480469 182.171875 116.773438 C 182.617188 117.070312 183.023438 117.40625 183.402344 117.78125 C 183.777344 118.15625 184.113281 118.566406 184.410156 119.007812 C 184.703125 119.449219 184.953125 119.917969 185.15625 120.410156 C 185.363281 120.898438 185.515625 121.40625 185.621094 121.929688 C 185.722656 122.449219 185.773438 122.976562 185.773438 123.507812 Z M 185.773438 123.507812 " fill-opacity="1" fill-rule="nonzero"/><path fill="#000000" d="M 168.746094 123.507812 C 168.796875 127.25 171.15625 130.632812 174.695312 131.914062 C 178.183594 133.195312 182.289062 132.066406 184.59375 129.195312 C 186.953125 126.273438 187.3125 122.125 185.363281 118.894531 C 183.414062 115.664062 179.621094 114.027344 175.925781 114.742188 C 171.773438 115.511719 168.746094 119.304688 168.746094 123.507812 C 168.746094 124.585938 170.386719 124.585938 170.441406 123.507812 C 170.492188 120.484375 172.335938 117.714844 175.210938 116.691406 C 178.082031 115.664062 181.3125 116.539062 183.3125 118.894531 C 185.261719 121.253906 185.519531 124.6875 183.929688 127.300781 C 182.390625 129.863281 179.261719 131.296875 176.335938 130.683594 C 172.953125 130.015625 170.492188 126.992188 170.441406 123.558594 C 170.386719 122.429688 168.695312 122.429688 168.746094 123.507812 Z M 168.746094 123.507812 " fill-opacity="1" fill-rule="nonzero"/><path fill="#f3b640" d="M 188.441406 110.949219 C 188.441406 109.308594 187.109375 107.976562 185.519531 107.976562 C 180.902344 107.925781 176.082031 107.925781 172.390625 107.976562 C 166.132812 107.976562 161.925781 114.382812 164.492188 120.125 L 165.3125 122.019531 L 167.464844 126.738281 C 168.695312 129.402344 172.542969 129.042969 173.261719 126.171875 C 173.363281 125.660156 173.464844 125.097656 173.464844 124.480469 C 170.796875 123.457031 172.03125 119.5625 173.875 120.175781 C 175.722656 120.792969 175.515625 125.097656 175.515625 125.097656 C 175.515625 125.097656 176.183594 124.839844 176.441406 122.125 C 176.59375 120.738281 177.722656 119.714844 179.109375 119.613281 L 179.824219 119.613281 C 184.59375 119.5625 188.441406 115.664062 188.441406 110.949219 Z M 188.441406 110.949219 " fill-opacity="1" fill-rule="nonzero"/><path fill="#000000" d="M 189.3125 110.949219 C 189.261719 109.824219 188.851562 108.796875 187.980469 108.082031 C 187.058594 107.3125 186.03125 107.15625 184.851562 107.15625 C 181.980469 107.105469 179.160156 107.105469 176.285156 107.105469 C 174.132812 107.105469 171.773438 106.902344 169.722656 107.515625 C 167.824219 108.082031 166.183594 109.207031 164.953125 110.796875 C 163.722656 112.335938 163.003906 114.230469 162.953125 116.230469 C 162.847656 118.023438 163.363281 119.613281 164.078125 121.203125 C 164.953125 123.148438 165.824219 125.097656 166.746094 127.042969 C 167.515625 128.683594 169.15625 129.554688 170.953125 129.300781 C 171.875 129.144531 172.746094 128.683594 173.363281 127.914062 C 174.183594 126.941406 174.335938 125.660156 174.390625 124.429688 C 174.390625 124.019531 174.132812 123.765625 173.773438 123.609375 C 172.953125 123.300781 172.746094 122.429688 172.902344 121.714844 C 172.953125 121.507812 173.003906 121.40625 173.105469 121.203125 C 173.261719 120.996094 173.054688 121.253906 173.210938 121.097656 C 173.210938 121.097656 173.414062 120.945312 173.3125 120.996094 C 173.515625 120.84375 173.621094 120.84375 173.875 120.996094 C 174.441406 121.40625 174.644531 122.535156 174.695312 123.25 C 174.746094 123.816406 174.800781 124.429688 174.746094 125.046875 C 174.695312 125.761719 175.464844 126.019531 176.03125 125.761719 C 176.75 125.457031 177.003906 124.277344 177.160156 123.609375 C 177.3125 122.789062 177.261719 121.816406 177.773438 121.148438 C 178.183594 120.636719 178.800781 120.433594 179.464844 120.433594 C 181.054688 120.433594 182.59375 120.175781 184.03125 119.511719 C 185.519531 118.792969 186.851562 117.664062 187.773438 116.28125 C 188.75 114.691406 189.3125 112.796875 189.3125 110.949219 C 189.3125 109.875 187.621094 109.875 187.621094 110.949219 C 187.621094 114.027344 185.773438 116.84375 182.953125 118.074219 C 181.722656 118.636719 180.492188 118.636719 179.160156 118.691406 C 177.515625 118.742188 176.03125 119.921875 175.722656 121.558594 C 175.570312 122.378906 175.515625 123.355469 175.261719 124.070312 C 175.261719 124.070312 175.160156 124.226562 175.160156 124.277344 C 175.054688 124.429688 175.210938 124.277344 175.160156 124.277344 C 174.953125 124.378906 175.3125 124.226562 175.210938 124.277344 C 175.621094 124.53125 176.03125 124.738281 176.492188 124.992188 C 176.542969 123.40625 176.441406 121.355469 175.363281 120.023438 C 174.695312 119.203125 173.566406 118.894531 172.59375 119.40625 C 171.722656 119.917969 171.261719 121.046875 171.210938 122.019531 C 171.15625 123.457031 172.082031 124.585938 173.363281 125.148438 C 173.15625 124.890625 172.953125 124.585938 172.746094 124.328125 C 172.695312 125.761719 172.335938 127.300781 170.644531 127.558594 C 169.515625 127.710938 168.644531 127.042969 168.234375 126.019531 C 167.464844 124.378906 166.695312 122.738281 165.976562 121.046875 C 165.464844 119.867188 164.902344 118.691406 164.746094 117.410156 C 164.542969 115.820312 164.902344 114.128906 165.667969 112.746094 C 166.4375 111.308594 167.617188 110.183594 169.105469 109.464844 C 170.746094 108.644531 172.441406 108.695312 174.234375 108.644531 C 176.953125 108.644531 179.671875 108.644531 182.441406 108.644531 C 183.160156 108.644531 183.878906 108.644531 184.59375 108.644531 C 185.160156 108.644531 185.773438 108.59375 186.339844 108.746094 C 187.210938 109.054688 187.773438 109.875 187.828125 110.796875 C 187.621094 112.027344 189.3125 112.027344 189.3125 110.949219 Z M 189.3125 110.949219 " fill-opacity="1" fill-rule="nonzero"/></svg>