<svg xmlns="http://www.w3.org/2000/svg" xmlns:xlink="http://www.w3.org/1999/xlink" width="500" zoomAndPan="magnify" viewBox="0 0 375 374.999991" height="500" preserveAspectRatio="xMidYMid meet" version="1.0"><defs><clipPath id="499397cc80"><path d="M 8.59375 204.792969 L 94.09375 204.792969 L 94.09375 337.542969 L 8.59375 337.542969 Z M 8.59375 204.792969 " clip-rule="nonzero"/></clipPath><clipPath id="12520f0e24"><path d="M 5.664062 124.714844 L 96.949219 124.714844 L 96.949219 216 L 5.664062 216 Z M 5.664062 124.714844 " clip-rule="nonzero"/></clipPath><clipPath id="b884c7bbcb"><path d="M 51.308594 124.714844 C 26.101562 124.714844 5.664062 145.148438 5.664062 170.355469 C 5.664062 195.566406 26.101562 216 51.308594 216 C 76.515625 216 96.949219 195.566406 96.949219 170.355469 C 96.949219 145.148438 76.515625 124.714844 51.308594 124.714844 Z M 51.308594 124.714844 " clip-rule="nonzero"/></clipPath><clipPath id="e852719232"><path d="M 144.785156 113.285156 L 230.285156 113.285156 L 230.285156 246 L 144.785156 246 Z M 144.785156 113.285156 " clip-rule="nonzero"/></clipPath><clipPath id="cb00a68cd6"><path d="M 141.660156 33.429688 L 232.945312 33.429688 L 232.945312 124.714844 L 141.660156 124.714844 Z M 141.660156 33.429688 " clip-rule="nonzero"/></clipPath><clipPath id="14eb9b695d"><path d="M 187.300781 33.429688 C 162.09375 33.429688 141.660156 53.863281 141.660156 79.070312 C 141.660156 104.28125 162.09375 124.714844 187.300781 124.714844 C 212.507812 124.714844 232.945312 104.28125 232.945312 79.070312 C 232.945312 53.863281 212.507812 33.429688 187.300781 33.429688 Z M 187.300781 33.429688 " clip-rule="nonzero"/></clipPath><clipPath id="d5b1245309"><path d="M 283.902344 204.792969 L 369.402344 204.792969 L 369.402344 337.542969 L 283.902344 337.542969 Z M 283.902344 204.792969 " clip-rule="nonzero"/></clipPath><clipPath id="22dcbf15ba"><path d="M 278.050781 124.714844 L 369.335938 124.714844 L 369.335938 216 L 278.050781 216 Z M 278.050781 124.714844 " clip-rule="nonzero"/></clipPath><clipPath id="d4d2cd78a5"><path d="M 323.691406 124.714844 C 298.484375 124.714844 278.050781 145.148438 278.050781 170.355469 C 278.050781 195.566406 298.484375 216 323.691406 216 C 348.898438 216 369.335938 195.566406 369.335938 170.355469 C 369.335938 145.148438 348.898438 124.714844 323.691406 124.714844 Z M 323.691406 124.714844 " clip-rule="nonzero"/></clipPath></defs><g clip-path="url(#499397cc80)"><path fill="#ff98bb" d="M 8.59375 337.476562 L 8.59375 247.523438 C 8.59375 224.03125 27.8125 204.8125 51.304688 204.8125 C 74.800781 204.8125 94.023438 224.03125 94.023438 247.523438 L 94.023438 337.476562 Z M 8.59375 337.476562 " fill-opacity="1" fill-rule="nonzero"/></g><g clip-path="url(#12520f0e24)"><g clip-path="url(#b884c7bbcb)"><path fill="#ec407a" d="M 5.664062 124.714844 L 96.949219 124.714844 L 96.949219 216 L 5.664062 216 Z M 5.664062 124.714844 " fill-opacity="1" fill-rule="nonzero"/></g></g><g clip-path="url(#e852719232)"><path fill="#ff9311" d="M 144.785156 245.964844 L 144.785156 156.015625 C 144.785156 132.523438 164.003906 113.300781 187.496094 113.300781 C 210.992188 113.300781 230.214844 132.523438 230.214844 156.015625 L 230.214844 245.964844 Z M 144.785156 245.964844 " fill-opacity="1" fill-rule="nonzero"/></g><g clip-path="url(#cb00a68cd6)"><g clip-path="url(#14eb9b695d)"><path fill="#ff98bb" d="M 141.660156 33.429688 L 232.945312 33.429688 L 232.945312 124.714844 L 141.660156 124.714844 Z M 141.660156 33.429688 " fill-opacity="1" fill-rule="nonzero"/></g></g><g clip-path="url(#d5b1245309)"><path fill="#ec407a" d="M 283.902344 337.476562 L 283.902344 247.523438 C 283.902344 224.03125 303.125 204.8125 326.617188 204.8125 C 350.109375 204.8125 369.332031 224.03125 369.332031 247.523438 L 369.332031 337.476562 Z M 283.902344 337.476562 " fill-opacity="1" fill-rule="nonzero"/></g><g clip-path="url(#22dcbf15ba)"><g clip-path="url(#d4d2cd78a5)"><path fill="#ff9311" d="M 278.050781 124.714844 L 369.335938 124.714844 L 369.335938 216 L 278.050781 216 Z M 278.050781 124.714844 " fill-opacity="1" fill-rule="nonzero"/></g></g></svg>